<?xml version="1.0" encoding="utf-8"?>
<!-- Generator: Adobe Illustrator 22.0.1, SVG Export Plug-In . SVG Version: 6.00 Build 0)  -->
<svg version="1.1" id="Layer_1" xmlns="http://www.w3.org/2000/svg" xmlns:xlink="http://www.w3.org/1999/xlink" x="0px" y="0px"
	 viewBox="0 0 775.5 144" style="enable-background:new 0 0 775.5 144;" xml:space="preserve">
<style type="text/css">
	.st0{fill:#DE4F76;}
	.st1{fill:#E7C897;}
	.st2{fill:#61A60E;}
	.st3{fill:#AE619D;}
	.st4{fill:#E3CFE2;}
	.st5{fill:#DAC1DD;}
</style>
<g>
	<g>
		<g>
			<g>
				<polygon class="st0" points="80.9,41 80.9,17 104.9,17 				"/>
				<polygon class="st1" points="45.7,41 45.7,17 69.7,17 				"/>
				<polygon class="st2" points="10.2,41 10.2,17 34.1,17 				"/>
				<polygon class="st3" points="10.2,75.9 10.2,51.8 34.2,51.8 				"/>
				<polygon class="st4" points="10.2,111.2 10.2,87.1 34.2,87.1 				"/>
				<polygon class="st5" points="45.7,75.9 45.7,51.8 69.8,51.8 				"/>
			</g>
			<path d="M121.1,17.3c-0.7-0.3-1.4-0.1-2,0.4L11,123.7c-0.7,0.7-0.7,1.8,0,2.6c0.7,0.7,1.8,0.7,2.6,0L118.6,23.3l0,59.1H78.3
				c-1,0-1.8,0.8-1.8,1.8c0,1,0.8,1.8,1.8,1.8h40.3l0,39.1c0,1,0.8,1.8,1.8,1.8c1,0,1.8-0.8,1.8-1.8l0-106.1
				C122.2,18.2,121.8,17.5,121.1,17.3z"/>
			<path d="M223.3,18.9c0-1-0.8-1.8-1.8-1.8c-1,0-1.8,0.8-1.8,1.8l0,106.1l0,0l0,0l0,0c0,1,0.8,1.8,1.8,1.8c1,0,1.8-0.8,1.8-1.8
				L223.3,18.9z"/>
			<path d="M173.2,67c-24.2-6.2-29.9-12.7-29.9-25c0-10.8,7.8-21.4,28.2-21.4c21.6,0,29.3,13.2,31,24.8h0l0.2,1.7
				c0.2,1.2,1.2,1.9,2.4,1.8c1.1-0.2,1.9-1.2,1.8-2.4c0,0-0.5-3.8-0.6-3.8c-2.7-14.6-14.2-26-34.6-26c-22.5,0-32.7,12.3-32.7,25.7
				c0,13.6,5.9,21.2,32.5,28.2c27.2,7.2,32.7,14.9,32.7,28.4c0,13.4-10.2,24.4-31.6,24.4c-20.8,0-31.2-8.9-34.8-26.7l-0.4-2.7
				c-0.2-1.1-1.2-1.9-2.4-1.8c-1.1,0.2-2,1.2-1.8,2.4l0.3,2.3c3,18.6,14.3,30.4,39,30.4c21.9,0,36.1-11,36.1-28.6
				C208.7,83.1,200.8,74,173.2,67z"/>
		</g>
		<g>
			<path d="M235.9,16.7c3,0,5.5,2.4,5.5,5.5c0,3.2-2.5,5.5-5.5,5.5c-3,0-5.5-2.4-5.5-5.5C230.4,19.1,232.9,16.7,235.9,16.7z
				 M235.9,26.9c2.5,0,4.5-2,4.5-4.7c0-2.6-2-4.6-4.5-4.6c-2.6,0-4.5,2-4.5,4.6C231.4,24.9,233.3,26.9,235.9,26.9z M233.8,19h2.5
				c1.5,0,2.2,0.6,2.2,1.8c0,1.2-0.7,1.6-1.7,1.7l1.8,2.8h-1.1l-1.7-2.8h-1.1v2.8h-1V19z M234.8,21.8h1c0.9,0,1.7,0,1.7-1.1
				c0-0.9-0.7-1-1.4-1h-1.3V21.8z"/>
		</g>
	</g>
	<g>
		<g>
			<g>
				<path d="M412.5,46.9h-1.2c-0.5,0-0.9,0.3-1.2,0.8c-2.7,6.4-9.4,10.6-16.9,10.6c-11.3,0-19.8-8.5-19.8-19.8
					c0-11.3,8.5-19.8,19.8-19.8c7.5,0,14.1,4.2,16.9,10.6c0.2,0.5,0.6,0.7,1.2,0.7h1.2c0.4,0,0.7-0.1,0.9-0.4c0.2-0.3,0.2-0.6,0.1-1
					c-3.1-7.8-11.2-13.1-20.1-13.1c-13.1,0-23,9.8-23,22.9c0,13.1,9.9,22.9,23,22.9c9.1,0,17-5.2,20.2-13.2c0.1-0.3,0.1-0.6-0.1-0.9
					C413.2,47.1,412.9,46.9,412.5,46.9z"/>
				<path d="M309.6,17c-0.2-0.5-0.6-0.8-1.1-0.8h-1.4c-0.5,0-0.9,0.3-1.2,0.8l-16.6,42.3c-0.2,0.5,0,0.8,0.1,1
					c0.1,0.1,0.4,0.4,0.9,0.4h1.1c0.5,0,0.9-0.3,1.2-0.8l4.2-10.7h22.2l4.2,10.7c0.2,0.5,0.6,0.8,1.2,0.8h1.1c0.5,0,0.8-0.2,0.9-0.4
					c0.1-0.1,0.2-0.5,0.1-1L309.6,17z M317.7,46.2h-19.9l9.9-25.5L317.7,46.2z"/>
				<path d="M352.1,42.1c5.9-1.4,10.1-6.6,10.1-12.8c0-7.2-5.9-13.1-13.1-13.1h-13.7c-0.7,0-1.1,0.4-1.1,1.1v42.3
					c0,0.7,0.4,1.1,1.1,1.1h1c0.7,0,1.1-0.4,1.1-1.1V42.5h10.9L364,60.2c0.3,0.3,0.7,0.5,1.1,0.5h1.3c0.4,0,0.8-0.2,0.9-0.5
					c0.1-0.3,0.1-0.7-0.2-1L352.1,42.1z M358.9,29.4c0,5.6-4.4,10.1-9.9,10.1h-11.6V19.3H349C354.5,19.3,358.9,23.8,358.9,29.4z"/>
				<path d="M450.3,16.2h-1c-0.7,0-1.1,0.4-1.1,1.1v19h-22.5v-19c0-0.7-0.4-1.1-1.1-1.1h-1c-0.7,0-1.1,0.4-1.1,1.1v42.3
					c0,0.7,0.4,1.1,1.1,1.1h1c0.6,0,1.1-0.4,1.1-1.1V39.4h22.5v20.2c0,0.7,0.4,1.1,1.1,1.1h1c0.7,0,1.1-0.4,1.1-1.1V17.3
					C451.4,16.7,451,16.2,450.3,16.2z"/>
				<path d="M465.8,16.2h-1c-0.7,0-1.1,0.4-1.1,1.1v42.3c0,0.7,0.4,1.1,1.1,1.1h1c0.7,0,1.1-0.4,1.1-1.1V17.3
					C466.9,16.7,466.5,16.2,465.8,16.2z"/>
				<path d="M502.6,16.2H476c-0.7,0-1.1,0.4-1.1,1.1v0.9c0,0.7,0.4,1.1,1.1,1.1h11.7v40.3c0,0.7,0.4,1.1,1.1,1.1h1
					c0.6,0,1.1-0.4,1.1-1.1V19.3h11.7c0.7,0,1.1-0.4,1.1-1.1v-0.9C503.7,16.7,503.2,16.2,502.6,16.2z"/>
				<path d="M535.3,57.7H515V39.8h18.4c0.7,0,1.1-0.4,1.1-1.1v-0.9c0-0.7-0.4-1.1-1.1-1.1H515V19.3h20c0.7,0,1.1-0.4,1.1-1.1v-0.9
					c0-0.7-0.4-1.1-1.1-1.1h-22.1c-0.7,0-1.1,0.4-1.1,1.1v42.3c0,0.7,0.4,1.1,1.1,1.1h22.4c0.7,0,1.1-0.4,1.1-1.1v-0.9
					C536.4,58.1,535.9,57.7,535.3,57.7z"/>
				<path d="M585.2,46.9h-1.2c-0.5,0-0.9,0.3-1.2,0.8c-2.8,6.4-9.4,10.6-16.9,10.6c-11.3,0-19.8-8.5-19.8-19.8
					c0-11.3,8.5-19.8,19.8-19.8c7.5,0,14.1,4.2,16.9,10.6c0.2,0.5,0.6,0.7,1.2,0.7h1.2c0.4,0,0.7-0.1,0.9-0.4c0.2-0.3,0.2-0.6,0.1-1
					c-3.1-7.8-11.2-13.1-20.1-13.1c-13.1,0-23,9.8-23,22.9c0,13.1,9.9,22.9,23,22.9c9.1,0,17-5.2,20.2-13.2c0.1-0.3,0.1-0.6-0.1-0.9
					C585.9,47.1,585.5,46.9,585.2,46.9z"/>
				<path d="M617.4,16.2h-26.5c-0.7,0-1.1,0.4-1.1,1.1v0.9c0,0.7,0.4,1.1,1.1,1.1h11.7v40.3c0,0.7,0.4,1.1,1.1,1.1h1
					c0.6,0,1.1-0.4,1.1-1.1V19.3h11.7c0.7,0,1.1-0.4,1.1-1.1v-0.9C618.5,16.7,618,16.2,617.4,16.2z"/>
				<path d="M654.4,16.2h-1c-0.7,0-1.1,0.4-1.1,1.1v30.7c0,6.3-4.4,10.2-11.6,10.2s-11.6-3.9-11.6-10.2V17.3c0-0.7-0.4-1.1-1.1-1.1
					h-1c-0.7,0-1.1,0.4-1.1,1.1v30.7c0,8.1,5.8,13.3,14.8,13.3s14.8-5.2,14.8-13.3V17.3C655.5,16.7,655.1,16.2,654.4,16.2z"/>
				<path d="M685,42.1c5.9-1.4,10.1-6.6,10.1-12.8c0-7.2-5.9-13.1-13.1-13.1h-13.7c-0.7,0-1.1,0.4-1.1,1.1v42.3
					c0,0.7,0.4,1.1,1.1,1.1h1c0.7,0,1.1-0.4,1.1-1.1V42.5h10.9l15.6,17.7c0.3,0.3,0.7,0.5,1.1,0.5h1.3c0.4,0,0.8-0.2,0.9-0.5
					c0.1-0.3,0.1-0.7-0.2-1L685,42.1z M691.8,29.4c0,5.6-4.4,10.1-9.9,10.1h-11.6V19.3h11.6C687.4,19.3,691.8,23.8,691.8,29.4z"/>
				<path d="M723.6,17c-0.2-0.5-0.6-0.8-1.1-0.8H721c-0.5,0-1,0.3-1.1,0.8l-16.6,42.3c-0.2,0.5,0,0.8,0.1,1c0.1,0.1,0.4,0.4,0.9,0.4
					h1.1c0.5,0,0.9-0.3,1.2-0.8l4.2-10.7h22.2l4.2,10.7c0.2,0.5,0.6,0.8,1.2,0.8h1.1c0.5,0,0.8-0.2,0.9-0.4c0.1-0.1,0.2-0.5,0.1-1
					L723.6,17z M731.6,46.2h-19.9l9.9-25.5L731.6,46.2z"/>
				<path d="M771.5,57.7h-20.1V17.3c0-0.7-0.4-1.1-1.1-1.1h-1c-0.7,0-1.1,0.4-1.1,1.1v42.3c0,0.7,0.4,1.1,1.1,1.1h22.2
					c0.7,0,1.1-0.4,1.1-1.1v-0.9C772.6,58.1,772.1,57.7,771.5,57.7z"/>
			</g>
			<g>
				<g>
					<path d="M305.9,99.5l-1.7-0.7c-5.7-2.1-10.6-4-10.6-9.7c0-4.9,4.2-8.3,10.2-8.3c5.7,0,10,3.5,10.3,8.2c0,0.6,0.5,1,1.1,1h1.1
						c0.4,0,0.6-0.2,0.8-0.3c0.1-0.1,0.3-0.4,0.3-0.8c-0.3-6.4-6.1-11.2-13.5-11.2c-7.7,0-13.3,4.7-13.3,11.3
						c0,7.8,6.4,10.2,12.6,12.4l1.6,0.6c5.6,2.1,10.8,4,10.8,9.9c0,5.1-4.4,8.6-10.8,8.6c-7.2,0-11.9-3.4-12.2-9c0-0.6-0.5-1-1.1-1
						h-1.1c-0.4,0-0.6,0.2-0.8,0.3c-0.1,0.1-0.3,0.4-0.3,0.8c0.3,7.2,6.4,11.9,15.4,11.9c8.1,0,13.9-4.9,13.9-11.6
						C318.5,104.3,312.1,101.9,305.9,99.5z"/>
					<path d="M352.3,78.5h-1.2c-0.5,0-0.8,0.2-1.1,0.6l-13.4,20.1l-13.4-20.1c-0.3-0.4-0.6-0.6-1.1-0.6H321c-0.4,0-0.7,0.2-0.9,0.5
						c-0.2,0.3-0.1,0.6,0.1,1l14.8,22.3v19.7c0,0.6,0.4,1.1,1.1,1.1h1c0.6,0,1.1-0.4,1.1-1.1v-19.7l14.8-22.3c0.2-0.3,0.3-0.7,0.1-1
						C353,78.7,352.7,78.5,352.3,78.5z"/>
					<path d="M371.5,99.5l-1.7-0.7c-5.7-2.1-10.6-4-10.6-9.7c0-4.9,4.2-8.3,10.2-8.3c5.7,0,10,3.5,10.3,8.2c0,0.6,0.5,1,1.1,1h1.1
						c0.4,0,0.6-0.2,0.8-0.3c0.1-0.1,0.3-0.4,0.3-0.8c-0.3-6.4-6.1-11.2-13.5-11.2c-7.7,0-13.3,4.7-13.3,11.3
						c0,7.8,6.4,10.2,12.6,12.4l1.6,0.6c5.6,2.1,10.8,4,10.8,9.9c0,5.1-4.4,8.6-10.8,8.6c-7.2,0-11.9-3.4-12.2-9c0-0.6-0.4-1-1.1-1
						h-1.1c-0.4,0-0.6,0.2-0.8,0.3c-0.1,0.1-0.3,0.4-0.3,0.8c0.3,7.2,6.4,11.9,15.4,11.9c8.1,0,13.9-4.9,13.9-11.6
						C384.2,104.3,377.7,101.9,371.5,99.5z"/>
					<path d="M414.2,78.5h-26.6c-0.6,0-1.1,0.4-1.1,1.1v0.9c0,0.6,0.4,1.1,1.1,1.1h11.7v40.4c0,0.6,0.4,1.1,1.1,1.1h1
						c0.6,0,1.1-0.4,1.1-1.1V81.5h11.7c0.6,0,1.1-0.4,1.1-1.1v-0.9C415.3,78.9,414.8,78.5,414.2,78.5z"/>
					<path d="M445.3,120H425V102h18.5c0.6,0,1.1-0.4,1.1-1.1v-0.9c0-0.6-0.4-1.1-1.1-1.1H425V81.5h20c0.6,0,1.1-0.4,1.1-1.1v-0.9
						c0-0.6-0.4-1.1-1.1-1.1h-22.1c-0.6,0-1.1,0.4-1.1,1.1v42.3c0,0.6,0.4,1.1,1.1,1.1h22.4c0.6,0,1.1-0.4,1.1-1.1V121
						C446.4,120.4,446,120,445.3,120z"/>
					<path d="M493.1,78.5h-1.8c-0.5,0-0.9,0.2-1.1,0.7l-16,31.7l-16-31.7c-0.2-0.5-0.6-0.7-1.1-0.7h-1.8c-0.6,0-1.1,0.4-1.1,1.1
						v42.3c0,0.6,0.4,1.1,1.1,1.1h1c0.6,0,1.1-0.4,1.1-1.1V84.4l15.1,29.9c0.2,0.5,0.6,0.7,1.1,0.7h1.2c0.5,0,0.9-0.2,1.1-0.7
						L491,84.4v37.5c0,0.6,0.4,1.1,1.1,1.1h1c0.6,0,1.1-0.4,1.1-1.1V79.6C494.1,78.9,493.7,78.5,493.1,78.5z"/>
					<path d="M518.6,99.5l-1.7-0.7c-5.7-2.1-10.6-4-10.6-9.7c0-4.9,4.2-8.3,10.2-8.3c5.7,0,10,3.5,10.3,8.2c0,0.6,0.5,1,1.1,1h1.1
						c0.4,0,0.6-0.2,0.8-0.3c0.1-0.1,0.3-0.4,0.3-0.8c-0.3-6.4-6.1-11.2-13.5-11.2c-7.7,0-13.3,4.7-13.3,11.3
						c0,7.8,6.4,10.2,12.6,12.4l1.6,0.6c5.6,2.1,10.8,4,10.8,9.9c0,5.1-4.4,8.6-10.8,8.6c-7.2,0-11.9-3.4-12.2-9c0-0.6-0.5-1-1.1-1
						H503c-0.4,0-0.6,0.2-0.8,0.3c-0.1,0.1-0.3,0.4-0.3,0.8c0.3,7.2,6.4,11.9,15.4,11.9c8.1,0,13.9-4.9,13.9-11.6
						C531.2,104.3,524.8,101.9,518.6,99.5z"/>
					<path d="M540.1,117.7h-1.5c-0.6,0-1.1,0.4-1.1,1.1v4.8c0,0.6,0.4,1,0.9,1c-0.1,2.3-0.6,3-1.2,3.4c-0.1,0.1-0.5,0.4-0.5,0.9v0.5
						c0,0.3,0.1,0.6,0.3,0.7c0.1,0.1,0.3,0.1,0.5,0.1c0.1,0,0.2,0,0.3-0.1c2.2-0.8,3.3-2.9,3.3-6.2v-5.4
						C541.2,118.2,540.8,117.7,540.1,117.7z"/>
					<path d="M570.6,78.5h-1c-0.6,0-1.1,0.4-1.1,1.1v42.3c0,0.6,0.4,1.1,1.1,1.1h1c0.6,0,1.1-0.4,1.1-1.1V79.6
						C571.7,78.9,571.2,78.5,570.6,78.5z"/>
					<path d="M609.8,78.5h-1c-0.6,0-1.1,0.4-1.1,1.1v36.9l-22.2-37.3c-0.2-0.4-0.6-0.6-1.1-0.6h-1c-0.6,0-1.1,0.4-1.1,1.1v42.3
						c0,0.6,0.4,1.1,1.1,1.1h1c0.6,0,1.1-0.4,1.1-1.1V85l22.2,37.3c0.2,0.4,0.6,0.6,1.1,0.6h1c0.6,0,1.1-0.4,1.1-1.1V79.6
						C610.9,78.9,610.4,78.5,609.8,78.5z"/>
					<path d="M661.4,109.2h-1.2c-0.5,0-0.9,0.2-1.1,0.7c-2.8,6.5-9.4,10.6-16.9,10.6c-11.3,0-19.8-8.5-19.8-19.9s8.5-19.9,19.8-19.9
						c7.5,0,14.2,4.2,16.9,10.6c0.2,0.5,0.6,0.7,1.1,0.7h1.2c0.4,0,0.7-0.1,0.8-0.4c0.2-0.2,0.2-0.6,0.1-0.9
						c-3.1-7.8-11.2-13.1-20.1-13.1c-13.1,0-23,9.8-23,22.9s9.9,22.9,23,22.9c9.1,0,17-5.2,20.2-13.1c0.1-0.3,0.1-0.6-0.1-0.8
						C662.1,109.4,661.7,109.2,661.4,109.2z"/>
					<path d="M669.4,117.7h-1.5c-0.6,0-1.1,0.4-1.1,1.1v3.1c0,0.6,0.4,1.1,1.1,1.1h1.5c0.6,0,1.1-0.4,1.1-1.1v-3.1
						C670.4,118.2,670,117.7,669.4,117.7z"/>
				</g>
			</g>
		</g>
	</g>
	<rect x="258.5" y="4.8" width="1.6" height="134.5"/>
</g>
</svg>
